# xmcd CD database file
#
# Track frame offsets:
#	150
#	13020
#	26688
#	38502
#	52690
#	64579
#	75092
#	87843
#	101793
#	115303
#	128374
#	139794
#	152033
#	164317
#	177777
#	190374
#	203273
#	217278
#	230189
#
# Disc length: 3250 seconds
#
# Revision: 0
# Processed by: cddbd v1.5.2PL0 Copyright (c) Steve Scherf et al.
# Submitted via: CDex 1.70beta2
#
DISCID=ee0cb013
DTITLE=The Savoy Recordings - Errol Garner - Part 2
DYEAR=1900
DGENRE=Jazz
TTITLE0=All Of Me
TTITLE1=Over The Rainbow
TTITLE2=Moonglow
TTITLE3=Stormy Weather
TTITLE4=The Man I Love
TTITLE5=This Can't Be Love
TTITLE6=On The Sunny Side Of The Street
TTITLE7=Rosalie
TTITLE8=Dark Eyes
TTITLE9=Jumpin' At The Deuces
TTITLE10=She's Funny That Way
TTITLE11=Undecided
TTITLE12=Red Sails In The Sunset
TTITLE13=A Cottage For Sale
TTITLE14=I Want A Little Girl
TTITLE15=Until The Real Thing Comes Along
TTITLE16=Everything Happens To Me
TTITLE17=A Stairway To The Stars
TTITLE18=I'm Confessin' That I Love You
EXTD=
EXTT0=
EXTT1=
EXTT2=
EXTT3=
EXTT4=
EXTT5=
EXTT6=
EXTT7=
EXTT8=
EXTT9=
EXTT10=
EXTT11=
EXTT12=
EXTT13=
EXTT14=
EXTT15=
EXTT16=
EXTT17=
EXTT18=
PLAYORDER=
